<svg width="26" height="23" viewBox="0 0 26 23" fill="none" xmlns="http://www.w3.org/2000/svg">
<path fill-rule="evenodd" clip-rule="evenodd" d="M9.32481 15.4744C9.48953 15.9686 9.99003 16.2688 10.5036 16.1814L23.1601 14.0281C23.596 13.954 23.9396 13.616 24.0209 13.1813L25.5023 5.25891C25.5592 4.95471 25.3289 4.67241 25.0194 4.66708L6.35686 4.34608C5.99275 4.33982 5.7318 4.69539 5.84695 5.04086L9.32481 15.4744Z" fill="#CB11AB"/>
<path fill-rule="evenodd" clip-rule="evenodd" d="M22.75 22.3333C23.9926 22.3333 25 21.3259 25 20.0833C25 18.8406 23.9926 17.8333 22.75 17.8333C21.5074 17.8333 20.5 18.8406 20.5 20.0833C20.5 21.3259 21.5074 22.3333 22.75 22.3333Z" fill="#CB11AB"/>
<path fill-rule="evenodd" clip-rule="evenodd" d="M9.75 22.3333C10.9926 22.3333 12 21.3259 12 20.0833C12 18.8406 10.9926 17.8333 9.75 17.8333C8.50736 17.8333 7.5 18.8406 7.5 20.0833C7.5 21.3259 8.50736 22.3333 9.75 22.3333Z" fill="#CB11AB"/>
<path fill-rule="evenodd" clip-rule="evenodd" d="M1.45442 0.56046C2.1177 0.418327 3.01745 0.333252 4 0.333252C4.98255 0.333252 5.8823 0.418327 6.54558 0.56046C6.87345 0.630717 7.16489 0.719266 7.38495 0.830753C7.4917 0.884835 7.61185 0.959005 7.71511 1.06714C7.80017 1.15621 8 1.40237 8 1.83325C8 2.26413 7.80017 2.5103 7.71511 2.59937C7.61185 2.7075 7.4917 2.78167 7.38495 2.83575C7.16489 2.94724 6.87345 3.03579 6.54558 3.10604C5.8823 3.24818 4.98255 3.33325 4 3.33325C3.01745 3.33325 2.1177 3.24818 1.45442 3.10604C1.12655 3.03579 0.835108 2.94724 0.615051 2.83575C0.508302 2.78167 0.388151 2.7075 0.284892 2.59937C0.199835 2.5103 0 2.26413 0 1.83325C0 1.40237 0.199835 1.15621 0.284892 1.06714C0.388151 0.959005 0.508302 0.884835 0.615051 0.830753C0.835108 0.719266 1.12655 0.630717 1.45442 0.56046Z" fill="#CB11AB"/>
</svg>
